<svg width="1572" height="1542" viewBox="0 0 1572 1542" fill="none" xmlns="http://www.w3.org/2000/svg">
<g opacity="0.04">
<path d="M1138.99 485.467C1145.07 467.236 1150.11 446.921 1153.07 426.086L1134.13 455.429C1137.95 473.66 1138.99 485.467 1138.99 485.467Z" fill="white"/>
<path d="M800.683 1314.37C800.683 1292.84 800.856 1272.35 801.03 1252.56C1000.16 1278.6 1099.72 1179.12 1159.32 1146.99L1102.85 1111.75C1097.64 1169.39 1016.84 1242.32 829.7 1211.76C929.264 1205.51 1019.62 1165.75 1089.99 1103.76L1083.39 1099.77C1018.23 1155.15 933.087 1188.14 838.041 1188.14C825.878 1188.14 813.715 1187.45 801.725 1186.41C804.853 974.407 815.278 869.882 848.988 818.835L1572 1541.48C1572 1541.48 1345.07 1305.52 1183.3 1113.31C1159.5 973.191 1329.95 1004.79 1329.95 1004.79C1329.95 1004.79 1271.4 977.532 1181.04 991.596C1217.36 927.7 1238.21 854.081 1238.21 775.601C1238.21 733.409 1231.95 692.259 1220.48 653.366C1257.67 679.411 1295.03 654.061 1295.03 654.061C1242.55 662.916 1210.23 617.772 1196.33 590.165C1195.81 588.95 1195.29 587.908 1194.59 586.693C1194.25 585.998 1193.9 585.304 1193.73 584.609C1174.44 545.369 1149.42 509.254 1119.53 477.654L1087.04 528.18C1135.69 589.471 1158.63 656.144 1119.18 701.462C1119.18 701.462 1173.4 683.751 1176.35 640.518C1199.81 693.995 1213.01 752.335 1213.01 812.931C1213.01 879.084 1197.03 940.375 1168.7 993.506C1147.85 997.499 1125.61 1003.92 1101.98 1013.13C1057.67 955.307 1027.61 908.948 1024.14 885.682C1024.14 973.365 959.151 927.006 848.64 818.661C872.098 783.067 907.023 773.344 958.456 771.26C906.502 769.003 871.403 759.106 847.945 722.818L1571.48 0C1571.48 0 1345.77 216.863 1155.85 377.47C1154.46 335.972 1142.29 294.822 1111.36 262.527C1093.64 104.525 1002.42 107.129 1002.42 107.129C1052.29 110.775 1087.73 186.999 1091.38 244.991C1091.38 244.991 1091.38 244.991 1091.21 244.991C1093.99 272.424 1079.91 291.87 1079.91 291.87C1079.91 291.87 1086.17 255.408 1063.75 228.149C1016.67 204.361 948.03 192.381 849.683 200.715C585.569 222.94 586.437 39.7611 586.437 39.7611C586.437 39.7611 578.618 242.733 800.509 242.907C800.509 277.286 800.161 309.581 799.814 339.618C799.814 339.618 799.64 339.618 799.466 339.618C680.962 339.618 572.884 387.714 493.824 465.326L29.0178 0.694516C29.0178 0.694516 276.798 258.186 439.09 454.387L439.958 455.255C450.036 467.583 459.941 479.564 469.324 491.197C469.324 491.197 469.324 491.197 469.324 491.37L473.32 496.232C478.533 502.83 483.572 509.254 488.611 515.505L490.001 517.241C539.349 580.616 573.232 631.836 576.881 656.492C576.881 568.809 641.867 615.168 752.378 723.512C728.92 759.106 693.994 768.83 642.562 770.913C694.516 773.17 729.615 783.067 753.073 819.356L535.005 1037.26C508.767 1003.92 492.607 970.934 482.703 941.07C481.139 995.068 500.6 1048.37 507.203 1064.87L506.508 1065.56C491.912 1041.25 424.841 919.54 471.061 818.661C471.061 818.661 427.274 848.873 418.934 896.447C413.026 881.689 407.987 866.756 403.643 851.477C393.043 859.117 383.487 867.625 374.972 876.827C386.441 925.096 406.075 970.239 432.313 1011.04C441.696 1033.79 459.419 1060.7 483.92 1088.31L366.98 1205.16C332.749 1150.29 312.419 1085.7 307.728 1020.24V1020.77C298.345 910.337 335.529 817.272 395.129 756.328C395.824 755.634 396.519 754.939 397.214 754.245C398.256 753.203 399.299 751.988 400.515 750.946C426.405 725.422 457.682 703.545 495.214 687.224C454.38 702.851 419.455 721.776 389.394 743.133C375.146 753.377 361.941 764.142 349.951 775.428C210.422 906.691 223.281 1106.02 321.976 1250.3L29.7128 1542C29.7128 1542 175.323 1402.23 331.011 1263.85C359.16 1302.04 393.391 1335.9 432.313 1362.99C462.721 1365.94 493.998 1361.08 493.998 1361.08C493.998 1361.08 478.88 1370.45 452.817 1376.01C479.576 1392.16 508.246 1405.35 538.48 1414.73C843.949 1508.49 1018.23 1274.78 1156.19 1424.97C1156.19 1424.97 1041.17 1260.37 869.144 1342.5C777.92 1386.08 696.601 1409.69 597.906 1377.92H598.253C720.406 1343.54 724.576 1272.87 716.409 1233.98C742.821 1241.97 770.622 1248.39 799.988 1252.21C799.988 1272.18 800.335 1292.5 800.335 1314.2L800.683 1314.37ZM848.293 722.471C815.626 671.945 805.2 569.851 801.899 366.01C836.13 369.135 869.491 376.428 901.463 387.366C945.424 404.035 994.424 435.983 1036.47 474.181C981.392 515.852 937.605 543.98 915.19 547.279C1002.94 547.279 956.545 612.043 848.293 722.471ZM800.683 242.733C812.151 242.733 823.966 242.386 836.477 241.171C1018.06 225.023 1091.03 330.069 1120.05 407.507C1106.33 418.793 1092.95 429.732 1080.09 440.15C1005.02 377.991 908.413 339.966 801.378 339.445C801.03 309.407 800.683 277.112 800.509 242.733H800.683ZM497.994 469.319C565.239 403.688 658.2 364.1 763.151 364.1C775.314 364.1 787.303 364.795 799.293 365.836C795.991 571.24 785.392 673.16 752.204 723.512L497.994 469.493V469.319ZM499.037 1330.35C483.398 1320.62 467.412 1310.03 450.732 1297.7C424.146 1278.08 401.036 1253.95 381.402 1227.04L355.338 1242.32L378.1 1222.52C378.1 1222.52 378.1 1222.52 378.1 1222.35C402.6 1200.99 426.753 1180.16 450.558 1160.02C480.792 1135.01 528.576 1091.43 586.611 1051.67C631.441 1019.03 666.888 997.673 686.175 994.895C598.427 994.895 644.821 930.131 753.073 819.703C786.261 871.097 796.512 975.622 799.64 1186.06C763.498 1182.76 728.573 1174.95 695.037 1162.97C649.86 1139.88 613.718 1115.05 584.526 1089.35L519.193 1123.9C566.803 1166.61 631.094 1207.07 709.633 1231.9C701.466 1298.22 585.395 1362.12 499.21 1330.35H499.037Z" fill="white"/>
<path d="M525.795 304.198C603.466 297.774 641.519 244.643 686.002 310.796C667.583 266 637.175 217.384 544.561 276.418C468.976 324.513 376.71 200.542 376.71 200.542C376.71 200.542 376.71 316.699 525.795 304.198Z" fill="white"/>
<path d="M394.955 730.458C404.164 727.506 413.547 724.033 423.973 719.519C411.462 724.728 399.646 727.506 388.352 728.548C389.916 646.768 416.153 572.976 459.941 513.421L457.161 505.782C407.465 568.462 374.451 644.858 365.416 728.027C321.107 721.603 283.575 684.967 238.919 634.441C176.018 563.426 52.1278 575.407 0 677.674C0 677.674 116.419 569.156 218.589 665.52C262.724 707.191 295.217 738.965 345.781 739.139C360.377 739.139 376.71 736.361 395.129 730.631L394.955 730.458Z" fill="white"/>
</g>
</svg>
