<svg width="352" height="352" viewBox="0 0 352 352" fill="none" xmlns="http://www.w3.org/2000/svg">
<path d="M255.041 110.82C256.403 106.658 257.532 102.021 258.193 97.2647L253.952 103.963C254.808 108.125 255.041 110.82 255.041 110.82Z" fill="#C69C6D"/>
<path d="M179.288 300.038C179.288 295.124 179.327 290.447 179.366 285.928C223.954 291.873 246.248 269.162 259.594 261.83L246.949 253.784C245.781 266.943 227.689 283.59 185.785 276.614C208.08 275.187 228.312 266.111 244.069 251.961L242.591 251.049C228 263.693 208.936 271.224 187.653 271.224C184.929 271.224 182.206 271.065 179.521 270.827C180.222 222.433 182.556 198.572 190.104 186.919L352 351.881C352 351.881 301.186 298.017 264.963 254.141C259.633 222.155 297.801 229.369 297.801 229.369C297.801 229.369 284.689 223.146 264.457 226.356C272.589 211.771 277.258 194.965 277.258 177.05C277.258 167.419 275.857 158.025 273.289 149.147C281.616 155.092 289.981 149.306 289.981 149.306C278.231 151.327 270.994 141.022 267.881 134.72C267.764 134.443 267.648 134.205 267.492 133.927C267.414 133.769 267.336 133.61 267.297 133.452C262.979 124.494 257.376 116.25 250.684 109.036L243.408 120.57C254.302 134.561 259.438 149.781 250.606 160.126C250.606 160.126 262.745 156.083 263.407 146.214C268.659 158.422 271.616 171.739 271.616 185.572C271.616 200.673 268.037 214.664 261.695 226.792C257.026 227.704 252.046 229.171 246.754 231.271C236.833 218.073 230.101 207.49 229.323 202.179C229.323 222.195 214.772 211.612 190.026 186.88C195.279 178.755 203.099 176.535 214.616 176.059C202.983 175.544 195.123 173.285 189.871 165.001L351.883 0C351.883 0 301.342 49.5043 258.815 86.1669C258.504 76.6941 255.781 67.3005 248.855 59.9284C244.886 23.8604 224.46 24.4549 224.46 24.4549C235.626 25.2872 243.564 42.6871 244.381 55.9252C244.381 55.9252 244.381 55.9252 244.342 55.9252C244.964 62.1876 241.813 66.6267 241.813 66.6267C241.813 66.6267 243.213 58.3033 238.194 52.0806C227.65 46.6506 212.282 43.9158 190.26 45.8183C131.12 50.8916 131.314 9.07646 131.314 9.07646C131.314 9.07646 129.563 55.41 179.249 55.4496C179.249 63.2974 179.171 70.6695 179.093 77.5264C179.093 77.5264 179.054 77.5264 179.015 77.5264C152.48 77.5264 128.279 88.5053 110.576 106.222L6.49762 0.158541C6.49762 0.158541 61.9803 58.9375 98.3203 103.725L98.5149 103.923C100.772 106.738 102.989 109.472 105.09 112.128C105.09 112.128 105.09 112.128 105.09 112.168L105.985 113.277C107.152 114.783 108.281 116.25 109.409 117.677L109.72 118.073C120.77 132.54 128.357 144.232 129.174 149.861C129.174 129.845 143.726 140.427 168.471 165.16C163.219 173.285 155.398 175.505 143.882 175.98C155.515 176.495 163.374 178.755 168.627 187.038L119.798 236.781C113.922 229.171 110.304 221.64 108.086 214.823C107.736 227.149 112.094 239.317 113.572 243.083L113.417 243.241C110.148 237.692 95.1299 209.908 105.479 186.88C105.479 186.88 95.6746 193.776 93.807 204.636C92.4841 201.267 91.3558 197.859 90.3831 194.371C88.0097 196.115 85.8698 198.057 83.9633 200.158C86.5312 211.176 90.9278 221.481 96.8029 230.796C98.9039 235.988 102.873 242.131 108.359 248.433L82.1735 275.108C74.5087 262.583 69.9564 247.839 68.9059 232.896V233.015C66.8049 207.807 75.1312 186.563 88.4766 172.651C88.6322 172.492 88.7879 172.334 88.9435 172.175C89.177 171.937 89.4104 171.66 89.6828 171.422C95.48 165.596 102.483 160.602 110.888 156.876C101.744 160.443 93.9237 164.763 87.1927 169.639C84.0022 171.977 81.0452 174.434 78.3606 177.011C47.1175 206.975 49.9967 252.476 72.0964 285.413L6.65326 352C6.65326 352 39.2581 320.094 74.1196 288.504C80.4227 297.224 88.0875 304.953 96.8029 311.136C103.612 311.81 110.615 310.7 110.615 310.7C110.615 310.7 107.23 312.84 101.394 314.109C107.386 317.795 113.806 320.807 120.576 322.947C188.976 344.35 228 291.001 258.893 325.286C258.893 325.286 233.136 287.712 194.617 306.459C174.191 316.408 155.982 321.798 133.882 314.545H133.96C161.312 306.697 162.246 290.565 160.417 281.687C166.331 283.51 172.557 284.977 179.132 285.849C179.132 290.407 179.21 295.044 179.21 299.999L179.288 300.038ZM189.948 164.922C182.634 153.388 180.299 130.083 179.56 83.551C187.225 84.2644 194.695 85.9291 201.854 88.4261C211.698 92.2311 222.67 99.5239 232.086 108.244C219.752 117.756 209.947 124.177 204.928 124.93C224.577 124.93 214.188 139.714 189.948 164.922ZM179.288 55.41C181.856 55.41 184.501 55.3307 187.303 55.0533C227.962 51.3672 244.303 75.3465 250.8 93.0238C247.727 95.6 244.731 98.0971 241.852 100.475C225.043 86.2858 203.411 77.6057 179.443 77.4868C179.366 70.6299 179.288 63.2577 179.249 55.41H179.288ZM111.51 107.134C126.567 92.1518 147.383 83.115 170.884 83.115C173.607 83.115 176.292 83.2735 178.976 83.5113C178.237 130.4 175.864 153.666 168.432 165.16L111.51 107.174V107.134ZM111.744 303.685C108.242 301.465 104.662 299.047 100.927 296.233C94.9742 291.755 89.7995 286.245 85.4029 280.102L79.5667 283.59L84.6636 279.071C84.6636 279.071 84.6636 279.071 84.6636 279.032C90.1497 274.157 95.5579 269.4 100.888 264.803C107.658 259.095 118.358 249.147 131.353 240.07C141.391 232.619 149.329 227.744 153.647 227.11C133.999 227.11 144.387 212.326 168.627 187.118C176.058 198.85 178.354 222.71 179.054 270.748C170.961 269.995 163.141 268.211 155.632 265.476C145.516 260.205 137.423 254.537 130.886 248.671L116.257 256.559C126.918 266.309 141.314 275.544 158.9 281.212C157.071 296.352 131.081 310.938 111.782 303.685H111.744Z" fill="#C69C6D"/>
<path d="M117.735 69.4408C135.127 67.9743 143.648 55.846 153.608 70.947C149.484 60.7211 142.675 49.6232 121.937 63.0992C105.012 74.0781 84.3524 45.7786 84.3524 45.7786C84.3524 45.7786 84.3524 72.2946 117.735 69.4408Z" fill="#C69C6D"/>
<path d="M88.4377 166.745C90.4998 166.071 92.6009 165.279 94.9353 164.248C92.134 165.437 89.4882 166.071 86.9592 166.309C87.3094 147.641 93.1845 130.796 102.989 117.201L102.367 115.457C91.2391 129.766 83.8466 147.205 81.8234 166.19C71.9018 164.724 63.4977 156.361 53.4984 144.827C39.4137 128.616 11.6724 131.351 0 154.696C0 154.696 26.0683 129.924 48.9462 151.922C58.8288 161.434 66.1046 168.687 77.4268 168.727C80.695 168.727 84.3524 168.093 88.4766 166.785L88.4377 166.745Z" fill="#C69C6D"/>
</svg>
