<svg width="1760" height="1762" viewBox="0 0 1760 1762" fill="none" xmlns="http://www.w3.org/2000/svg">
<path d="M1324.42 1324.94C1743.81 905.551 1884.81 366.596 1639.37 121.148C1393.92 -124.299 854.965 16.7062 435.578 436.093C16.1906 855.48 -124.815 1394.44 120.633 1639.88C366.08 1885.33 905.035 1744.33 1324.42 1324.94Z" stroke="#C69C6D" stroke-miterlimit="10"/>
<path d="M435.578 1324.94C16.1905 905.551 -124.815 366.596 120.633 121.148C366.08 -124.299 905.035 16.7062 1324.42 436.093C1743.81 855.48 1884.82 1394.44 1639.37 1639.88C1393.92 1885.33 854.965 1744.33 435.578 1324.94Z" stroke="#C69C6D" stroke-miterlimit="10"/>
<path d="M843.687 1360.11C595.505 1341.29 400 1133.99 400 881.016C400 628.045 595.505 420.686 843.687 401.923M917.313 401.923C1165.49 420.737 1361 628.045 1361 881.016C1361 1133.99 1165.49 1341.35 917.313 1360.11M904.856 401.923C882.432 402.991 881.568 403.906 880.449 426.33C879.381 403.906 878.466 403.041 856.043 401.923C878.466 400.855 879.331 399.94 880.449 377.516C881.517 399.94 882.432 400.804 904.856 401.923ZM904.856 1360.11C882.432 1361.18 881.568 1362.09 880.449 1384.52C879.381 1362.09 878.466 1361.23 856.043 1360.11C878.466 1359.04 879.331 1358.13 880.449 1335.7C881.517 1358.13 882.432 1358.99 904.856 1360.11Z" stroke="#C69C6D" stroke-linecap="round" stroke-linejoin="round"/>
<path d="M1231.31 1121.2C1107.01 1303.21 861.592 1361.42 667.75 1249.51C473.908 1137.59 401.579 895.926 497.088 697.295M529.688 640.832C653.991 458.825 899.408 400.607 1093.25 512.522C1287.09 624.437 1359.42 866.106 1263.91 1064.74M524.172 650.386C515.062 668.054 515.38 669.122 532.068 679.901C514.412 670.799 513.345 671.118 502.559 687.82C511.669 670.151 511.351 669.083 494.663 658.305C512.319 667.407 513.386 667.087 524.172 650.386ZM1258.4 1074.29C1249.29 1091.96 1249.6 1093.03 1266.29 1103.8C1248.64 1094.7 1247.57 1095.02 1236.78 1111.72C1245.89 1094.06 1245.57 1092.99 1228.89 1082.21C1246.54 1091.31 1247.61 1090.99 1258.4 1074.29Z" stroke="#C69C6D" stroke-linecap="round" stroke-linejoin="round"/>
<path d="M392.974 1114.67C271.719 862.319 363.759 555.24 610.25 412.929C856.741 270.617 1168.75 344.419 1326.62 575.634M1368.03 647.358C1489.28 899.712 1397.24 1206.79 1150.75 1349.1C904.259 1491.41 592.252 1417.61 434.383 1186.4M1361.02 635.222C1347.37 613.979 1345.99 613.652 1323.51 625.177C1344.76 611.522 1345.09 610.144 1333.57 587.671C1347.22 608.914 1348.6 609.241 1371.07 597.716C1349.83 611.371 1349.5 612.749 1361.02 635.222ZM427.377 1174.26C413.725 1153.02 412.347 1152.69 389.868 1164.22C411.117 1150.56 411.445 1149.18 399.923 1126.71C413.575 1147.95 414.953 1148.28 437.432 1136.75C416.183 1150.41 415.855 1151.79 427.377 1174.26Z" stroke="#C69C6D" stroke-linecap="round" stroke-linejoin="round"/>
<path d="M0 816.855V945.176C2.85884 886.213 5.18404 883.882 64 881.016C5.18404 878.111 2.85884 875.78 0 816.855Z" fill="#C69C6D"/>
<path d="M0 768.516V816.855C1.0673 794.654 1.94402 793.775 24.0905 792.705C1.94402 791.596 1.0673 790.718 0 768.516Z" fill="#C69C6D"/>
<path d="M0 945.176V993.516C1.0673 971.314 1.94402 970.435 24.0905 969.365C1.94402 968.295 1.0673 967.416 0 945.214V945.176Z" fill="#C69C6D"/>
<path d="M1760 816.855V945.176C1757.14 886.213 1754.82 883.882 1696 881.016C1754.82 878.111 1757.14 875.78 1760 816.855Z" fill="#C69C6D"/>
<path d="M1760 768.516V816.855C1758.93 794.654 1758.06 793.775 1735.91 792.705C1758.06 791.596 1758.93 790.718 1760 768.516Z" fill="#C69C6D"/>
<path d="M1760 945.176V993.516C1758.93 971.314 1758.06 970.435 1735.91 969.365C1758.06 968.295 1758.93 967.416 1760 945.214V945.176Z" fill="#C69C6D"/>
</svg>
